<?xml version="1.0" encoding="iso-8859-1"?>
<!-- Generator: Adobe Illustrator 19.0.0, SVG Export Plug-In . SVG Version: 6.00 Build 0)  -->
<svg version="1.1" id="Layer_1" xmlns="http://www.w3.org/2000/svg" xmlns:xlink="http://www.w3.org/1999/xlink" x="0px" y="0px"
	 viewBox="0 0 512.043 512.043" style="enable-background:new 0 0 512.043 512.043;" xml:space="preserve">
<g>
	<g>
		<path d="M286.17,256.021L505.752,36.44C519.191,23,509.673,0.021,490.667,0.021H256c-5.658,0-11.084,2.248-15.085,6.248
			L6.248,240.936c-8.331,8.331-8.331,21.839,0,30.17l234.667,234.667c4.001,4.001,9.427,6.248,15.085,6.248h234.667
			c19.006,0,28.524-22.979,15.085-36.418L286.17,256.021z M264.837,469.355L51.503,256.021L264.837,42.688h174.327L240.915,240.936
			c-8.331,8.331-8.331,21.839,0,30.17l198.248,198.248H264.837z"/>
	</g>
</g>
<g>
</g>
<g>
</g>
<g>
</g>
<g>
</g>
<g>
</g>
<g>
</g>
<g>
</g>
<g>
</g>
<g>
</g>
<g>
</g>
<g>
</g>
<g>
</g>
<g>
</g>
<g>
</g>
<g>
</g>
</svg>
